<svg width="120" height="120" viewBox="0 0 120 120" fill="none" xmlns="http://www.w3.org/2000/svg">
<rect width="120" height="120" rx="10" fill="#BBDD92"/>
<path d="M43.8623 72.5232C43.8623 70.7055 45.3391 69.2315 47.1568 69.2315C48.9746 69.2315 50.4513 70.7055 50.4513 72.5232C50.4513 74.3465 48.9746 75.826 47.1568 75.826C45.3391 75.826 43.8623 74.3465 43.8623 72.5232ZM57.3813 39.5452H30.6733V53.9167H57.3813V39.5452ZM30.6733 59.414H89.3253V72.207C89.3253 78.7437 84.7301 84.2052 78.6086 85.594L83.8418 94.6057C84.6118 95.9147 84.1801 97.6005 82.8711 98.3732C82.4311 98.6317 81.9498 98.7555 81.4741 98.7555C80.5336 98.7555 79.6151 98.2715 79.1036 97.4052L77.4838 94.614H42.5946L40.9913 97.3832C40.4798 98.2632 39.5586 98.7555 38.6098 98.7555C38.1423 98.7555 37.6693 98.6372 37.2348 98.3842C35.9203 97.6252 35.4693 95.9422 36.2338 94.6277L41.4506 85.6132C35.2988 84.2492 30.6733 78.7657 30.6733 72.207V59.414ZM74.2883 89.1167L72.4541 85.9597H47.6023L45.7763 89.1167H74.2883ZM65.6121 72.526C65.6121 76.563 68.8928 79.8465 72.9271 79.8465C76.9613 79.8465 80.2421 76.563 80.2421 72.526C80.2421 68.4917 76.9613 65.211 72.9271 65.211C68.8928 65.211 65.6121 68.4917 65.6121 72.526ZM39.8418 72.526C39.8418 76.563 43.1226 79.8465 47.1568 79.8465C51.1911 79.8465 54.4718 76.563 54.4718 72.526C54.4718 68.4917 51.1911 65.211 47.1568 65.211C43.1226 65.211 39.8418 68.4917 39.8418 72.526ZM62.8813 39.5452V53.9167H89.3253V39.5452H62.8813ZM75.5753 21.2412H44.4233C37.1661 21.2412 31.2673 26.9117 30.7696 34.0425H89.2291C88.7313 26.9117 82.8326 21.2412 75.5753 21.2412ZM72.9271 75.826C74.7448 75.826 76.2216 74.3465 76.2216 72.5232C76.2216 70.7055 74.7448 69.2315 72.9271 69.2315C71.1093 69.2315 69.6326 70.7055 69.6326 72.5232C69.6326 74.3465 71.1093 75.826 72.9271 75.826Z" fill="black"/>
</svg>
