<svg width="120" height="120" viewBox="0 0 120 120" fill="none" xmlns="http://www.w3.org/2000/svg">
<rect width="120" height="120" rx="10" fill="#69D2A7"/>
<g clip-path="url(#clip0_1104_11495)">
<path d="M103.571 82.5191L82.2138 33.6302C81.4545 31.8916 79.8 30.7778 77.9788 30.7778H63.0693L63.4436 34.3162C63.52 35.0373 62.9532 35.6667 62.2275 35.6667H57.7725C57.0468 35.6667 56.48 35.0373 56.5563 34.3162L56.9307 30.7778H42.0211C40.1984 30.7778 38.5439 31.8916 37.7845 33.6302L16.4277 82.5191C15.0145 85.7564 17.2695 89.4445 20.6658 89.4445H50.7386L52.3137 74.5212C52.4451 73.2776 53.4932 72.3334 54.7444 72.3334H65.2555C66.5068 72.3334 67.5548 73.2776 67.6862 74.5212L69.2613 89.4445H99.3341C102.73 89.4445 104.985 85.7564 103.571 82.5191ZM55.7833 41.6495C55.815 41.3491 55.9568 41.0711 56.1814 40.8691C56.406 40.6671 56.6974 40.5555 56.9994 40.5556H63.002C63.6269 40.5556 64.1525 41.0277 64.2182 41.6495L64.9209 48.3076C65.0355 49.3907 64.1861 50.3334 63.0983 50.3334H56.9047C55.8154 50.3334 54.9675 49.3907 55.082 48.3076L55.7833 41.6495V41.6495ZM64.2227 67.4445H55.7757C54.3243 67.4445 53.1922 66.1871 53.345 64.7434L54.1195 57.4101C54.2509 56.1664 55.299 55.2223 56.5502 55.2223H63.4482C64.6994 55.2223 65.7475 56.1664 65.8789 57.4101L66.6534 64.7434C66.8062 66.1871 65.6741 67.4445 64.2227 67.4445V67.4445Z" fill="white"/>
</g>
<defs>
<clipPath id="clip0_1104_11495">
<rect width="88" height="78.2222" fill="white" transform="translate(16 21)"/>
</clipPath>
</defs>
</svg>
