<svg width="120" height="120" viewBox="0 0 120 120" fill="none" xmlns="http://www.w3.org/2000/svg">
<rect width="120" height="120" rx="10" fill="#AECDE1"/>
<path d="M86.7051 68.9262C85.8418 69.7903 84.8014 70.2223 83.584 70.2223C82.3665 70.2223 81.3372 69.7792 80.4961 68.8929L79.5 67.9624V95.746H85.875C86.4505 95.746 86.9486 95.9565 87.3691 96.3775C87.7897 96.7985 88 97.297 88 97.873C88 98.4491 87.7897 98.9476 87.3691 99.3686C86.9486 99.7895 86.4505 100 85.875 100H22.1914C21.6159 100 21.1178 99.7895 20.6973 99.3686C20.2767 98.9476 20.0664 98.4491 20.0664 97.873C20.0664 97.297 20.2767 96.7985 20.6973 96.3775C21.1178 95.9565 21.6159 95.746 22.1914 95.746H28.5V67.9624L27.5039 68.8929C26.6628 69.7792 25.6335 70.2223 24.416 70.2223C23.1986 70.2223 22.1582 69.7903 21.2949 68.9262C20.4316 68.0621 20 67.0208 20 65.8022C20 64.5836 20.4206 63.5533 21.2617 62.7114L50.7461 33.2661C51.6315 32.3798 52.7161 31.9589 54 32.0032C55.2839 31.9589 56.3685 32.3798 57.2539 33.2661L86.6719 62.7114C87.5573 63.5533 88 64.5836 88 65.8022C88 67.0208 87.5684 68.0621 86.7051 68.9262ZM49.75 76.6032C49.75 76.0272 49.5397 75.5287 49.1191 75.1077C48.6986 74.6867 48.2005 74.4763 47.625 74.4763H39.125C38.5495 74.4763 38.0514 74.6867 37.6309 75.1077C37.2103 75.5287 37 76.0272 37 76.6032V95.746H49.75V76.6032ZM71 76.6032C71 76.0272 70.7897 75.5287 70.3691 75.1077C69.9486 74.6867 69.4505 74.4763 68.875 74.4763H60.375C59.7995 74.4763 59.3014 74.6867 58.8809 75.1077C58.4603 75.5287 58.25 76.0272 58.25 76.6032V85.1112C58.25 85.6872 58.4603 86.1857 58.8809 86.6067C59.3014 87.0277 59.7995 87.2381 60.375 87.2381H68.875C69.4505 87.2381 69.9486 87.0277 70.3691 86.6067C70.7897 86.1857 71 85.6872 71 85.1112V76.6032Z" fill="#15191B"/>
<path d="M51.7167 44.6964C53.2679 43.1936 55.7319 43.1936 57.2831 44.6964L72.9532 59.8772C75.5347 62.3781 73.7643 66.7501 70.17 66.7501H38.8298C35.2355 66.7501 33.4651 62.3781 36.0466 59.8772L51.7167 44.6964Z" fill="#AECDE1"/>
<path d="M98.6572 33.7746C98.4287 34.0033 98.1533 34.1177 97.8311 34.1177C97.5088 34.1177 97.2363 34.0004 97.0137 33.7658L96.75 33.5195V40.874H98.4375C98.5898 40.874 98.7217 40.9297 98.833 41.0411C98.9443 41.1525 99 41.2845 99 41.437C99 41.5895 98.9443 41.7214 98.833 41.8329C98.7217 41.9443 98.5898 42 98.4375 42H81.5801C81.4277 42 81.2959 41.9443 81.1846 41.8329C81.0732 41.7214 81.0176 41.5895 81.0176 41.437C81.0176 41.2845 81.0732 41.1525 81.1846 41.0411C81.2959 40.9297 81.4277 40.874 81.5801 40.874H83.25V33.5195L82.9863 33.7658C82.7637 34.0004 82.4912 34.1177 82.1689 34.1177C81.8467 34.1177 81.5713 34.0033 81.3428 33.7746C81.1143 33.5458 81 33.2702 81 32.9476C81 32.6251 81.1113 32.3524 81.334 32.1295L89.1387 24.3351C89.373 24.1005 89.6602 23.9891 90 24.0008C90.3398 23.9891 90.627 24.1005 90.8613 24.3351L98.6484 32.1295C98.8828 32.3524 99 32.6251 99 32.9476C99 33.2702 98.8857 33.5458 98.6572 33.7746ZM88.875 35.8067C88.875 35.6543 88.8193 35.5223 88.708 35.4109C88.5967 35.2994 88.4648 35.2437 88.3125 35.2437H86.0625C85.9102 35.2437 85.7783 35.2994 85.667 35.4109C85.5557 35.5223 85.5 35.6543 85.5 35.8067V40.874H88.875V35.8067ZM94.5 35.8067C94.5 35.6543 94.4443 35.5223 94.333 35.4109C94.2217 35.2994 94.0898 35.2437 93.9375 35.2437H91.6875C91.5352 35.2437 91.4033 35.2994 91.292 35.4109C91.1807 35.5223 91.125 35.6543 91.125 35.8067V38.0588C91.125 38.2113 91.1807 38.3433 91.292 38.4547C91.4033 38.5661 91.5352 38.6219 91.6875 38.6219H93.9375C94.0898 38.6219 94.2217 38.5661 94.333 38.4547C94.4443 38.3433 94.5 38.2113 94.5 38.0588V35.8067Z" fill="#15191B"/>
<path d="M89.2965 27.696C89.6862 27.3103 90.3137 27.3103 90.7034 27.696L94.3336 31.289C94.9686 31.9175 94.5236 32.9998 93.6302 32.9998H86.3697C85.4763 32.9998 85.0313 31.9175 85.6662 31.289L89.2965 27.696Z" fill="#AECDE1"/>
</svg>
