<svg width="120" height="120" viewBox="0 0 120 120" fill="none" xmlns="http://www.w3.org/2000/svg">
<rect width="120" height="120" rx="10" fill="#C6B4D3"/>
<g clip-path="url(#clip0_1104_11529)">
<path d="M81.9414 61.9287H91.3158V84.375H81.9414V61.9287Z" fill="white"/>
<path d="M64.189 61.9287H73.564V84.375H64.189V61.9287Z" fill="white"/>
<path d="M46.436 61.9287H55.811V84.375H46.436V61.9287Z" fill="white"/>
<path d="M28.6841 61.9287H38.0585V84.375H28.6841V61.9287Z" fill="white"/>
<path d="M94.4415 54.8975V52.5537H25.5591V54.8975C25.5591 56.192 26.6083 57.2412 27.9028 57.2412H92.0978C93.3917 57.2412 94.4415 56.192 94.4415 54.8975Z" fill="white"/>
<path d="M97.655 89.0625H22.3462C21.0516 89.0625 20.0024 90.1117 20.0024 91.4062V97.6562C20.0024 98.9508 21.0516 100 22.3462 100H97.655C98.9496 100 99.9988 98.9508 99.9988 97.6562V91.4062C99.9988 90.1117 98.9496 89.0625 97.655 89.0625Z" fill="white"/>
<path d="M22.3435 47.8662H97.656C98.7046 47.8662 99.6256 47.1698 99.9113 46.1609C100.196 45.152 99.7776 44.0759 98.8847 43.5266L61.2284 20.3479C60.4753 19.884 59.5249 19.884 58.7712 20.3479L21.1149 43.5266C20.222 44.0765 19.8033 45.152 20.0889 46.1609C20.3745 47.1698 21.2956 47.8662 22.3435 47.8662V47.8662ZM58.4068 33.7854H61.5934C62.888 33.7854 63.9372 34.8346 63.9372 36.1292C63.9372 37.4237 62.888 38.4729 61.5934 38.4729H58.4068C57.1122 38.4729 56.063 37.4237 56.063 36.1292C56.063 34.8346 57.1122 33.7854 58.4068 33.7854V33.7854Z" fill="white"/>
</g>
<defs>
<clipPath id="clip0_1104_11529">
<rect width="80" height="80" fill="white" transform="translate(20 20)"/>
</clipPath>
</defs>
</svg>
