<svg width="120" height="120" viewBox="0 0 120 120" fill="none" xmlns="http://www.w3.org/2000/svg">
<rect width="120" height="120" rx="10" fill="#644095"/>
<path d="M42.0477 33.3849C46.785 33.3849 50.6254 29.5445 50.6254 24.8072C50.6254 20.0699 46.785 16.2295 42.0477 16.2295C37.3103 16.2295 33.47 20.0699 33.47 24.8072C33.47 29.5445 37.3103 33.3849 42.0477 33.3849Z" fill="white"/>
<path d="M62.053 74.4524C61.8112 72.5594 60.4405 71.0051 58.5929 70.5279L48.6288 67.9555L48.8513 64.82C47.1516 64.4959 45.7197 63.3362 45.0449 61.7563L38.9706 47.471L48.2286 59.2548C49.0306 60.2754 50.2907 60.8309 51.5929 60.728L59.6015 60.0908C59.5464 60.2807 59.5154 60.4808 59.5154 60.6886C59.5154 61.873 60.4756 62.8331 61.6599 62.8331C63.6554 62.8331 78.5794 62.8331 81.0056 62.8331C81.9755 62.8331 82.8247 62.1821 83.0766 61.2455L88.5217 41.0007C88.8293 39.8569 88.1516 38.6804 87.0077 38.3728C85.8639 38.0655 84.6874 38.7427 84.3798 39.8867L79.3617 58.5439C77.3027 58.5439 71.3292 58.5439 69.3188 58.5439C70.2106 57.7622 70.7377 56.5872 70.6365 55.3143C70.4662 53.1747 68.5966 51.5766 66.4542 51.7484L53.0537 52.8145L45.0828 42.6691L50.1551 46.4534L50.3181 44.158C50.5446 40.9659 48.1406 38.1943 44.9483 37.9678L35.1132 37.2697C31.7458 37.0308 28.883 39.7144 28.9086 43.0938L29.1267 71.7789C29.1357 72.9682 29.573 74.1032 30.3409 74.9867H26.3723L22.1938 41.9924C21.9782 40.289 20.4231 39.0821 18.719 39.2987C17.0156 39.5145 15.8094 41.0701 16.0252 42.7735L20.5479 78.4862C20.7447 80.0398 22.0662 81.2046 23.6323 81.2046H34.8597V93.9365L27.4744 99.9653C26.5569 100.714 26.4201 102.065 27.1693 102.983C27.9182 103.9 29.2694 104.037 30.1867 103.288L34.8595 99.4733V101.627C34.8595 102.811 35.8197 103.771 37.004 103.771C38.1884 103.771 39.1486 102.811 39.1486 101.627V99.4733L43.8214 103.288C44.2197 103.613 44.6994 103.771 45.1764 103.771C45.7981 103.771 46.4151 103.502 46.839 102.983C47.588 102.065 47.4514 100.714 46.5339 99.9653L39.1486 93.9365V81.2046H49.3864C50.9396 81.2046 52.2233 80.0643 52.4545 78.5759L53.2016 78.7688L55.8758 99.6982C56.2024 102.255 58.5401 104.06 61.0927 103.733C63.6476 103.407 65.4539 101.071 65.1275 98.5162L62.053 74.4524Z" fill="white"/>
<path d="M100.891 65.6172H65.5761C63.8592 65.6172 62.467 67.0091 62.467 68.7263C62.467 70.4434 63.859 71.8353 65.5761 71.8353H97.7815V97.553H83.1495C81.4326 97.553 80.0405 98.9449 80.0405 100.662C80.0405 102.379 81.4324 103.771 83.1495 103.771H100.891C102.607 103.771 104 102.379 104 100.662V68.7261C104 67.0091 102.608 65.6172 100.891 65.6172Z" fill="white"/>
</svg>
