<svg width="120" height="120" viewBox="0 0 120 120" fill="none" xmlns="http://www.w3.org/2000/svg">
<rect width="120" height="120" rx="10" fill="#CF352B"/>
<path d="M96 44V76C96 81.3043 93.8929 86.3914 90.1421 90.1421C86.3914 93.8929 81.3043 96 76 96H44C38.6957 96 33.6086 93.8929 29.8579 90.1421C26.1071 86.3914 24 81.3043 24 76V44C24 38.6957 26.1071 33.6086 29.8579 29.8579C33.6086 26.1071 38.6957 24 44 24H76C81.3043 24 86.3914 26.1071 90.1421 29.8579C93.8929 33.6086 96 38.6957 96 44Z" stroke="white" stroke-width="5" stroke-linecap="round" stroke-linejoin="round"/>
<path d="M67.6 84H52.4C51.7635 84 51.153 83.7471 50.7029 83.2971C50.2529 82.847 50 82.2365 50 81.6V72.4C50 71.7635 49.7471 71.153 49.2971 70.7029C48.847 70.2529 48.2365 70 47.6 70H38.4C37.7635 70 37.153 69.7471 36.7029 69.2971C36.2529 68.847 36 68.2365 36 67.6V52.4C36 51.7635 36.2529 51.153 36.7029 50.7029C37.153 50.2529 37.7635 50 38.4 50H47.6C48.2365 50 48.847 49.7471 49.2971 49.2971C49.7471 48.847 50 48.2365 50 47.6V38.4C50 37.7635 50.2529 37.153 50.7029 36.7029C51.153 36.2529 51.7635 36 52.4 36H67.6C68.2365 36 68.847 36.2529 69.2971 36.7029C69.7471 37.153 70 37.7635 70 38.4V47.6C70 48.2365 70.2529 48.847 70.7029 49.2971C71.153 49.7471 71.7635 50 72.4 50H81.6C82.2365 50 82.847 50.2529 83.2971 50.7029C83.7471 51.153 84 51.7635 84 52.4V67.6C84 68.2365 83.7471 68.847 83.2971 69.2971C82.847 69.7471 82.2365 70 81.6 70H72.4C71.7635 70 71.153 70.2529 70.7029 70.7029C70.2529 71.153 70 71.7635 70 72.4V81.6C70 82.2365 69.7471 82.847 69.2971 83.2971C68.847 83.7471 68.2365 84 67.6 84V84Z" stroke="white" stroke-width="5"/>
</svg>
