<svg width="120" height="120" viewBox="0 0 120 120" fill="none" xmlns="http://www.w3.org/2000/svg">
<rect x="14" y="18" width="99" height="84" fill="white"/>
<path d="M3.4 3.4L2.72987 4.10955C0.976697 5.96585 0 8.42246 0 10.9758L0 60.3L0 109.658C0 112.31 1.05357 114.854 2.92893 116.729L3.1 116.9L3.27107 117.071C5.14643 118.946 7.68997 120 10.3421 120H60.2H110.099C112.725 120 115.243 118.957 117.1 117.1V117.1V117.1C118.957 115.243 120 112.725 120 110.099V60.3C120 28.7693 120 15.3756 120 9.8064C120 7.34959 119.079 4.99533 117.419 3.18429V3.18429C115.559 1.15525 112.933 0 110.181 0C102.804 0 85.9603 0 59.5 0H10.9421C8.28998 0 5.74643 1.05357 3.87107 2.92893L3.4 3.4ZM83.5 36.3C97.1 43.3 101.5 46 101.5 47.4C101.5 49.7 63.9 73 60.2 73C58.8 73 56.3 72.2 54.6 71.1C27.5 54.8 17.9 48.5 18.2 47.1C18.5 45.7 50.9 28.6 57.6 26.3C61.3 25 61.8 25.2 83.5 36.3ZM99.9 70.3C99.8 78.5 100.2 83.4 101.1 85.3C102.8 89 101.3 91.5 97.5 91.5C93.4 91.5 92.1 88.7 94.3 84.9C95.6 82.5 96 79.5 96 70.6C96 59.9 96.9 56.2 99.2 57.6C99.7 57.9 100 63.7 99.9 70.3ZM43.2 69.2C53.2 75.4 57.4 77.4 60 77.5C62.6 77.5 66.9 75.4 77.3 69.1C84.8 64.5 91.3 61 91.6 61.3C92.1 61.8 92.3 70.5 92 79.8C92 82.5 86.5 87.6 80.6 90.4C77.7 91.8 71.6 93.4 66.9 94.1C59.8 95.1 57.3 95.1 50.7 93.7C41.3 91.8 34.8 88.7 30.9 84.2C28.1 81.1 28 80.5 28 71C28 65.1 28.4 61 29 61C29.5 61 35.9 64.7 43.2 69.2Z" fill="#EEA09B"/>
</svg>
