<svg width="120" height="120" viewBox="0 0 120 120" fill="none" xmlns="http://www.w3.org/2000/svg">
<rect width="120" height="120" rx="10" fill="#F08531"/>
<path d="M22.3484 74.3089C21.791 73.8865 21.8673 73.1883 21.8673 73.1883L24.9532 36.5334C24.9532 36.5334 25.0001 36.1286 25.182 35.9233C25.2934 35.7942 25.4342 35.6065 25.71 35.495C28.8017 34.2278 45.6449 25.1051 54.134 33.6001C55.542 35.231 57.0673 37.6363 57.0673 39.4667V70.4897C57.0673 70.4897 57.1025 71.1467 56.51 71.5457C56.2938 71.6675 56.0505 71.733 55.8023 71.736C55.5542 71.7391 55.3093 71.6797 55.0902 71.5633C42.031 65.0278 27.4524 72.4667 23.774 74.4203C23.5512 74.5435 23.2971 74.5981 23.0434 74.5772C22.7898 74.5563 22.5479 74.4609 22.3484 74.303V74.3089ZM96.2273 74.4203C92.5489 72.4667 77.9702 65.0337 64.911 71.5633C64.6919 71.6797 64.447 71.7391 64.1989 71.736C63.9508 71.733 63.7074 71.6675 63.4913 71.5457C62.8988 71.1467 62.934 70.4897 62.934 70.4897V39.4667C62.934 37.6363 64.4593 35.231 65.8673 33.6001C74.3505 25.1051 91.0939 34.2278 94.1857 35.495C94.4555 35.6065 94.5963 35.7942 94.7137 35.9233C94.8897 36.1286 94.9425 36.5334 94.9425 36.5334L98.1281 73.1883C98.1281 73.1883 98.2102 73.8865 97.6587 74.303C97.4586 74.4621 97.2157 74.5583 96.9608 74.5792C96.706 74.6001 96.4507 74.5448 96.2273 74.4203V74.4203ZM68.0086 90.4246C68.2794 90.3467 68.5205 90.1893 68.7009 89.9729C68.8407 89.7867 68.926 89.5653 68.9473 89.3334C69.2406 83.8305 78.4748 78.703 96.2156 89.1574C96.6673 89.4155 97.1894 89.3921 97.6353 89.0694C98.1398 88.6998 98.134 88.0721 98.134 88.0721V84.8278C98.134 84.8278 98.1339 84.3761 97.9755 84.1297C97.8444 83.9153 97.6552 83.7424 97.43 83.631C85.55 75.9163 70.5254 72.4961 62.9046 82.6923C62.818 82.9073 62.6688 83.0912 62.4764 83.2203C62.142 83.4843 61.7372 83.4667 61.7372 83.4667H58.3052C58.3052 83.4667 57.8945 83.4843 57.566 83.2262C57.3735 83.0971 57.2243 82.9132 57.1377 82.6982C49.511 72.4961 34.4924 75.7521 22.6124 83.4667C22.3863 83.5797 22.1971 83.7547 22.0668 83.9713C21.9084 84.2177 21.9084 84.6635 21.9084 84.6635V87.9137C21.9084 87.9137 21.9025 88.5414 22.407 88.911C22.8529 89.2278 23.375 89.2571 23.8326 88.999C41.5676 78.5446 50.8076 83.8363 51.095 89.3334C51.118 89.5659 51.2053 89.7873 51.3473 89.9729C51.5277 90.1893 51.7688 90.3467 52.0396 90.4246C56.2694 91.4806 62.4118 91.8913 68.0086 90.4246V90.4246Z" fill="white"/>
</svg>
