<svg width="120" height="120" viewBox="0 0 120 120" fill="none" xmlns="http://www.w3.org/2000/svg">
<rect width="120" height="120" rx="10" fill="#FFFFA5"/>
<path fill-rule="evenodd" clip-rule="evenodd" d="M40.6118 99.4975L61.0848 64.0393L73.1043 70.9818C67.2188 82.2279 64.9348 93.9237 66.0433 103.576C57.5898 104.756 48.7379 103.497 40.6118 99.4975V99.4975ZM78.2363 73.9442L96.5397 84.5119C90.5241 93.4977 81.6603 99.6198 71.8578 102.361C71.0018 93.908 73.1358 83.7545 78.2363 73.9442ZM43.9333 54.1422L55.9606 61.0848L35.4877 96.539C27.9612 91.5017 22.4465 84.4685 19.2434 76.5595C28.1505 72.6898 37.1365 64.8637 43.9333 54.1422ZM102.615 49.0852C105.143 58.9468 104.271 69.684 99.4982 79.3878L81.1948 68.8202C87.1434 59.499 94.8632 52.5762 102.615 49.0852V49.0852ZM20.5018 40.6122L38.8052 51.1798C32.8566 60.501 25.1368 67.4238 17.3855 70.9148C14.8569 61.0532 15.7287 50.316 20.5018 40.6122V40.6122ZM84.5123 23.461C92.0388 28.4983 97.5535 35.5315 100.757 43.4405C91.8495 47.3102 82.8635 55.1363 76.0667 65.8578L64.0394 58.9152L84.5123 23.461ZM53.9567 16.4238C62.4102 15.2443 71.2621 16.5027 79.3882 20.5025L58.9152 55.9607L46.8957 49.0182C52.7812 37.7721 55.0652 26.0763 53.9567 16.4238V16.4238ZM48.1422 17.6387C48.9982 26.092 46.8642 36.2455 41.7637 46.0558L23.4603 35.4881C29.476 26.5023 38.3397 20.3802 48.1422 17.6387V17.6387Z" fill="black"/>
</svg>
