<svg width="120" height="120" viewBox="0 0 120 120" fill="none" xmlns="http://www.w3.org/2000/svg">
<rect x="13" y="17" width="99" height="84" fill="#15191B"/>
<path d="M3.4 3.4L2.92894 3.87106C1.05357 5.74643 0 8.28997 0 10.9421L0 60.3L0 109.658C0 112.31 1.05357 114.854 2.92893 116.729L3.1 116.9L3.27107 117.071C5.14643 118.946 7.68997 120 10.3421 120H60.2H110.099C112.725 120 115.243 118.957 117.1 117.1V117.1V117.1C118.957 115.243 120 112.725 120 110.099V60.3C120 28.9982 120 15.7406 120 10.1255C120 7.47336 118.946 4.94643 117.071 3.07107L116.929 2.92893C115.054 1.05357 112.515 0 109.863 0C102.677 0 86.0653 0 59.5 0H10.9421C8.28998 0 5.74643 1.05357 3.87107 2.92893L3.4 3.4ZM87.5 35.6C91.1 37.1 92.5 41.1 93.6 45.3C93.9 46.9 95.4 48.7 97 49.5C98.5 50.3 100.5 52.5 101.4 54.5C103 57.8 103 58.3 101.6 60.6C98.9 64.6 96.4 63.7 95.1 58.3L93.9 53.7L92 56.8C89.5 60.8 85.2 63 79.7 63C74.7 63 71 60.6 67.9 55.7L66.1 52.6L65 55.4C64.5 56.9 64 59.2 64 60.6C64 63.4 62.4 63.7 59.8 61.3C56.1 58 58.1 51.7 63.6 49.4C65.9 48.4 67 47.3 67 45.9C67 42.2 70.1 37.2 73.3 35.6C77.3 33.7 83.2 33.8 87.5 35.6ZM52.9 38C54.7 38.9 55 40 55 46.2C55 53 54.9 53.3 51.1 57.1C47.7 60.5 46.7 61 42.6 61C38.8 61 37.4 60.4 34.5 57.7C31.7 55.2 30.8 53.3 29.9 48.7C28.8 42.2 29.2 41.1 34.5 37.8C36.9 36.2 38.7 36 44.2 36.4C47.9 36.6 51.8 37.4 52.9 38ZM54.8 67.3C56.6 69.6 59.1 72.8 60.3 74.3L62.6 77.1L67.5 71L72.3 65H80.7H89L95.5 73.7C101.7 82.1 101.9 82.5 99.7 83.2C96 84.2 95.5 84.1 93.7 81.2C92.8 79.7 91.1 77.4 90 76L87.9 73.5L88.3 76.5C88.5 78.1 89.1 80.3 89.5 81.2C90.1 82.8 89.4 83 80.7 83H71.2L71.7 78.7C72.1 75.1 71.9 74.7 70.8 76.1C70.1 77 67.8 79.6 65.8 81.8L62.1 85.9L57.6 81.2L53 76.5V80.3V84.1L43.3 83.8L33.5 83.5V79.8C33.5 75.7 33.8 75.6 26.1 82.3C21.6 86.1 21.6 86.1 19.6 84.1C17.7 82.1 17.7 82.1 24.6 74.5C28.4 70.3 32.2 66 33 65C34.3 63.4 35.8 63.1 43 63.1H51.5L54.8 67.3Z" fill="#F4C17B"/>
<path d="M52.5 46C52.5 48.5196 50.9991 52.4359 49.2175 54.2175C47.4359 55.9991 45.0196 57 42.5 57C39.9804 57 37.5641 55.9991 35.7825 54.2175C34.0009 52.4359 33 49.0196 33 46.5L40.5 45L43 46.5L52.5 46Z" fill="#F4C17B"/>
<path d="M90.5 48.5C90.5 51.0196 88.9991 54.9359 87.2175 56.7175C85.4359 58.4991 83.0196 59.5 80.5 59.5C77.9804 59.5 75.5641 58.4991 73.7825 56.7175C72.0009 54.9359 71 51.5196 71 49L75 45V50L80.5 44L81 48.5H90.5Z" fill="#F4C17B"/>
</svg>
