<svg width="120" height="120" viewBox="0 0 120 120" fill="none" xmlns="http://www.w3.org/2000/svg">
<rect width="120" height="120" rx="5" fill="#70F1D9"/>
<path d="M106.004 62H87.3991C84.611 48.3234 72.4945 37.999 58.0018 37.999C43.5092 37.999 31.3928 48.3234 28.6046 62H14.0001C12.8961 62 12 62.8961 12 64.0002C12 64.0802 12.036 64.1522 12.048 64.2282C11.9079 65.2281 12.508 66.2002 13.5081 66.4522C21.5085 68.4643 28.0008 76.0886 28.0008 80.0007C28.0008 81.0847 28.8648 81.9728 29.9488 82.0009C31.1008 81.9649 31.9409 81.1849 31.9969 80.1048C32.117 77.8808 32.077 74.8606 32.0369 71.9565C32.0209 70.5764 32.0009 69.2243 32.0009 68.0003C32.0009 67.3243 32.0528 66.6643 32.1008 66.0001H83.8989C83.9508 66.6641 83.9988 67.3241 83.9988 68.0003L84.0069 71.3685C84.0189 73.5726 84.027 75.8647 83.9988 79.9887C83.9908 81.0127 84.7629 81.8809 85.783 81.9889C85.8589 81.997 85.927 82.0009 85.999 82.0009C86.935 82.0009 87.755 81.3489 87.9551 80.4168C89.6951 72.1965 97.4514 66.0003 106 66.0003C107.104 66.0003 108 65.1042 108 64.0002C108 62.8961 107.108 62 106.004 62ZM28.0246 71.2404C26.3766 69.3044 24.3125 67.4962 22.0363 66.0001H28.1047C28.0606 66.6641 28.0047 67.3241 28.0047 68.0003C28.0006 69.0122 28.0126 70.1123 28.0246 71.2404ZM32.7248 62C34.1049 56.1837 37.4371 51.1276 41.9973 47.5475V62H32.7248ZM56.0019 62H46.0015V44.9593C49.0337 43.3713 52.4178 42.3792 56.0019 42.1032V62ZM70.0023 62H60.002V42.0993C63.5862 42.3753 66.9703 43.3713 70.0023 44.9554V62V62ZM74.0026 62V47.5475C78.5628 51.1236 81.895 56.1839 83.275 62H74.0026ZM88.0111 71.0283L88.0031 68.0003C88.0031 67.3243 87.947 66.6643 87.9031 66.0001H93.3513C91.3152 67.3882 89.4992 69.0803 88.0111 71.0283Z" fill="#15191B"/>
</svg>
