<svg width="120" height="120" viewBox="0 0 120 120" fill="none" xmlns="http://www.w3.org/2000/svg">
<rect width="120" height="120" rx="10" fill="#C72AB7"/>
<path d="M100 43.3811V32.6888L70.9104 20H49.0896L20 32.6888V43.3811H46.301L31.1358 95.0515H20V100H100V95.0515H88.8642L73.699 43.3811H100ZM52.08 38.4327V24.9485H67.9198V38.4327H52.08ZM95.0515 38.4327H72.8685V26.2529L95.0515 35.9291V38.4327ZM24.9485 35.9291L47.1315 26.2527V38.4325H24.9485V35.9291ZM81.3814 95.0515H38.6186L60 71.7615L81.3814 95.0515ZM63.3588 68.1029L72.7843 57.836L81.643 88.0191L63.3588 68.1029ZM38.3569 88.0191L47.2157 57.836L56.6412 68.1029L38.3569 88.0191ZM71.1569 52.2913L60 64.444L48.843 52.2913L51.4581 43.3811H68.5417L71.1569 52.2913Z" fill="white"/>
</svg>
