<svg width="120" height="120" viewBox="0 0 120 120" fill="none" xmlns="http://www.w3.org/2000/svg">
<rect width="120" height="120" rx="10" fill="#549E3F"/>
<g clip-path="url(#clip0_1104_11545)">
<path d="M77.199 85.443H99.6086L89.4579 69.8635H97.0708L85.6511 52.3375H91.9957L68.2065 15.8281L57.4461 32.3423C59.0514 34.1785 60.791 36.2853 62.5252 38.5942C70.4838 49.1901 74.5188 58.8748 74.5188 67.3813C74.5188 78.4082 68.4394 88.0413 59.4569 93.1082V98.6734H47.5801V91.6064C59.806 90.3153 69.3639 79.9437 69.3639 67.3813C69.3639 49.699 47.6741 29.4734 46.7502 28.6214L45.0026 27.0074L43.2543 28.6214C42.3305 29.4741 20.6406 49.699 20.6406 67.3813C20.6406 79.9437 30.1992 90.3153 42.4252 91.6064V98.6734H29.1921V103.828H88.3676V98.6734H77.199V85.443ZM42.4252 79.2367L33.0996 69.9111L36.7445 66.2655L42.4252 71.9461V61.6732H47.5801V71.9461L53.2607 66.2662L56.9057 69.9111L47.5801 79.2367V85.5001H42.4252V79.2367Z" fill="white"/>
</g>
<defs>
<clipPath id="clip0_1104_11545">
<rect width="88" height="88" fill="white" transform="translate(16 16)"/>
</clipPath>
</defs>
</svg>
