<svg width="120" height="120" viewBox="0 0 120 120" fill="none" xmlns="http://www.w3.org/2000/svg">
<rect width="120" height="120" rx="10" fill="#B1B1B1"/>
<g clip-path="url(#clip0_1104_11534)">
<path d="M96.7621 100H57.4927C55.0577 99.9675 53.8975 98.4477 54.0936 96.4377L60.5486 35.9075C60.712 34.2079 62.0847 32.8516 63.7843 32.8516H90.1437C91.8432 32.8516 93.1996 34.2079 93.3793 35.9075L99.671 95.9147C100.112 99.0197 98.7558 99.9185 96.7621 100ZM61.2349 93.3654H93.0198L87.4146 39.47H67.02L61.2349 93.3654Z" fill="white"/>
<path d="M35.9049 41.3491C34.2053 40.4993 33.6987 38.4566 34.5485 36.9368C35.3983 35.2372 37.441 34.7307 38.9608 35.5804C42.5723 37.0839 47.6383 29.4522 48.3083 28.6025C52.5572 23.847 58.1625 20.7747 63.7841 20.1047C70.2391 19.4183 76.8739 22.1474 80.6161 27.0827C81.6293 28.6188 81.4659 30.6452 79.9298 31.6747C78.3937 32.6879 76.3673 32.5245 75.3377 30.9884C72.9682 27.9161 68.8827 26.2166 64.6338 26.7232C60.7281 27.2297 56.6427 29.4359 53.407 33.0148C44.6968 45.6143 37.2613 42.0191 35.9049 41.3491Z" fill="white"/>
<path d="M32.506 29.2725C33.6989 27.9161 35.2187 26.8866 36.7549 26.8866C38.1112 26.7232 39.6474 27.2298 40.3174 28.243C41.5103 29.5993 43.5531 29.7791 45.0729 28.7496C46.609 27.7364 46.7724 25.6936 45.7592 24.1575C43.5531 21.265 39.8108 19.7452 36.0685 20.072C33.0126 20.4152 29.9403 22.1148 27.5707 24.6641C26.5249 25.9878 25.4463 27.3768 24.858 27.5566C23.3219 26.8702 21.4589 27.5566 20.6091 29.0927C19.7593 30.7923 20.4457 32.835 22.1453 33.505C25.4953 35.1229 28.9271 34.175 32.506 29.2725Z" fill="white"/>
<mask id="path-5-inside-1_1104_11534" fill="white">
<rect x="20" y="69" width="40" height="31" rx="2"/>
</mask>
<rect x="20" y="69" width="40" height="31" rx="2" stroke="white" stroke-width="12" mask="url(#path-5-inside-1_1104_11534)"/>
<line x1="33" y1="85" x2="47" y2="85" stroke="white" stroke-width="6" stroke-linecap="round"/>
</g>
<defs>
<clipPath id="clip0_1104_11534">
<rect width="80" height="80" fill="white" transform="translate(20 20)"/>
</clipPath>
</defs>
</svg>
