<svg width="120" height="120" viewBox="0 0 120 120" fill="none" xmlns="http://www.w3.org/2000/svg">
<rect width="120" height="120" rx="10" fill="#A65E34"/>
<path d="M78.3333 85.6667H85.6666V56.3333H63.6666V85.6667H70.9999V63.6667H78.3333V85.6667ZM26.9999 85.6667V30.6667C26.9999 29.6942 27.3862 28.7616 28.0739 28.0739C28.7615 27.3863 29.6941 27 30.6666 27H81.9999C82.9724 27 83.905 27.3863 84.5926 28.0739C85.2803 28.7616 85.6666 29.6942 85.6666 30.6667V49H92.9999V85.6667H96.6666V93H23.3333V85.6667H26.9999ZM41.6666 56.3333V63.6667H48.9999V56.3333H41.6666ZM41.6666 71V78.3333H48.9999V71H41.6666ZM41.6666 41.6667V49H48.9999V41.6667H41.6666Z" fill="white"/>
</svg>
